<mxfile host="app.diagrams.net" agent="Mozilla/5.0 (Windows NT 10.0; Win64; x64) AppleWebKit/537.36 (KHTML, like Gecko) Chrome/136.0.0.0 Safari/537.36" version="27.0.2">
  <diagram name="Page-1" id="tpEAgMdwoPSHZIPR7ks2">
    <mxGraphModel dx="1281" dy="562" grid="1" gridSize="10" guides="1" tooltips="1" connect="1" arrows="1" fold="1" page="1" pageScale="1" pageWidth="1169" pageHeight="1654" math="0" shadow="0">
      <root>
        <mxCell id="0" />
        <mxCell id="1" parent="0" />
        <mxCell id="JxCmPl5MqmU63_nnE1fJ-1" value="&lt;font style=&quot;font-size: 18px;&quot;&gt;Register Object diagram&lt;/font&gt;" style="text;align=center;fontStyle=1;verticalAlign=middle;spacingLeft=3;spacingRight=3;strokeColor=none;rotatable=0;points=[[0,0.5],[1,0.5]];portConstraint=eastwest;html=1;" vertex="1" parent="1">
          <mxGeometry x="490" y="30" width="190" height="26" as="geometry" />
        </mxCell>
        <mxCell id="JxCmPl5MqmU63_nnE1fJ-2" value="&lt;font style=&quot;font-size: 18px;&quot;&gt;precondition&lt;/font&gt;" style="text;html=1;align=center;verticalAlign=middle;resizable=0;points=[];autosize=1;strokeColor=none;fillColor=none;" vertex="1" parent="1">
          <mxGeometry x="510" y="93" width="120" height="40" as="geometry" />
        </mxCell>
        <mxCell id="JxCmPl5MqmU63_nnE1fJ-3" value="&lt;font style=&quot;font-size: 14px;&quot;&gt;:registerForm&lt;/font&gt;" style="swimlane;fontStyle=0;childLayout=stackLayout;horizontal=1;startSize=26;fillColor=none;horizontalStack=0;resizeParent=1;resizeParentMax=0;resizeLast=0;collapsible=1;marginBottom=0;whiteSpace=wrap;html=1;" vertex="1" parent="1">
          <mxGeometry x="420" y="220" width="240" height="52" as="geometry" />
        </mxCell>
        <mxCell id="JxCmPl5MqmU63_nnE1fJ-9" value="&lt;font style=&quot;font-size: 14px;&quot;&gt;Formid=unset&lt;/font&gt;" style="text;strokeColor=none;fillColor=none;align=left;verticalAlign=top;spacingLeft=4;spacingRight=4;overflow=hidden;rotatable=0;points=[[0,0.5],[1,0.5]];portConstraint=eastwest;whiteSpace=wrap;html=1;" vertex="1" parent="JxCmPl5MqmU63_nnE1fJ-3">
          <mxGeometry y="26" width="240" height="26" as="geometry" />
        </mxCell>
        <mxCell id="JxCmPl5MqmU63_nnE1fJ-10" value="&lt;font style=&quot;font-size: 14px;&quot;&gt;:user&lt;/font&gt;" style="swimlane;fontStyle=0;childLayout=stackLayout;horizontal=1;startSize=26;fillColor=none;horizontalStack=0;resizeParent=1;resizeParentMax=0;resizeLast=0;collapsible=1;marginBottom=0;whiteSpace=wrap;html=1;" vertex="1" parent="1">
          <mxGeometry x="457.5" y="430" width="165" height="90" as="geometry" />
        </mxCell>
        <mxCell id="JxCmPl5MqmU63_nnE1fJ-11" value="&lt;font style=&quot;font-size: 14px;&quot;&gt;&lt;span style=&quot;text-wrap-mode: nowrap;&quot;&gt;userName= &quot;&quot;&lt;/span&gt;&lt;br style=&quot;text-wrap-mode: nowrap; padding: 0px; margin: 0px;&quot;&gt;&lt;span style=&quot;text-wrap-mode: nowrap;&quot;&gt;Email=&quot;&quot;&lt;br&gt;&lt;/span&gt;&lt;/font&gt;&lt;div&gt;&lt;font style=&quot;font-size: 14px;&quot;&gt;&lt;span style=&quot;text-wrap-mode: nowrap;&quot;&gt;Password= &quot;&quot;&lt;/span&gt;&lt;br style=&quot;text-wrap-mode: nowrap; padding: 0px; margin: 0px;&quot;&gt;&lt;br&gt;&lt;/font&gt;&lt;/div&gt;" style="text;strokeColor=none;fillColor=none;align=left;verticalAlign=top;spacingLeft=4;spacingRight=4;overflow=hidden;rotatable=0;points=[[0,0.5],[1,0.5]];portConstraint=eastwest;whiteSpace=wrap;html=1;" vertex="1" parent="JxCmPl5MqmU63_nnE1fJ-10">
          <mxGeometry y="26" width="165" height="64" as="geometry" />
        </mxCell>
        <mxCell id="JxCmPl5MqmU63_nnE1fJ-12" value="" style="endArrow=open;endFill=1;endSize=12;html=1;rounded=0;entryX=0.407;entryY=-0.011;entryDx=0;entryDy=0;entryPerimeter=0;" edge="1" parent="1" source="JxCmPl5MqmU63_nnE1fJ-9" target="JxCmPl5MqmU63_nnE1fJ-10">
          <mxGeometry width="160" relative="1" as="geometry">
            <mxPoint x="520" y="280" as="sourcePoint" />
            <mxPoint x="680" y="280" as="targetPoint" />
          </mxGeometry>
        </mxCell>
        <mxCell id="JxCmPl5MqmU63_nnE1fJ-13" value="handles" style="edgeLabel;html=1;align=center;verticalAlign=middle;resizable=0;points=[];" vertex="1" connectable="0" parent="JxCmPl5MqmU63_nnE1fJ-12">
          <mxGeometry x="-0.2302" relative="1" as="geometry">
            <mxPoint as="offset" />
          </mxGeometry>
        </mxCell>
        <mxCell id="JxCmPl5MqmU63_nnE1fJ-14" value="1" style="text;html=1;align=center;verticalAlign=middle;resizable=0;points=[];autosize=1;strokeColor=none;fillColor=none;" vertex="1" parent="1">
          <mxGeometry x="540" y="272" width="30" height="30" as="geometry" />
        </mxCell>
        <mxCell id="JxCmPl5MqmU63_nnE1fJ-15" value="*" style="text;html=1;align=center;verticalAlign=middle;resizable=0;points=[];autosize=1;strokeColor=none;fillColor=none;" vertex="1" parent="1">
          <mxGeometry x="540" y="400" width="30" height="30" as="geometry" />
        </mxCell>
        <mxCell id="JxCmPl5MqmU63_nnE1fJ-16" value="&lt;font style=&quot;font-size: 14px;&quot;&gt;:TermsAccepted&lt;/font&gt;" style="swimlane;fontStyle=0;childLayout=stackLayout;horizontal=1;startSize=26;fillColor=none;horizontalStack=0;resizeParent=1;resizeParentMax=0;resizeLast=0;collapsible=1;marginBottom=0;whiteSpace=wrap;html=1;" vertex="1" parent="1">
          <mxGeometry x="482.5" y="610" width="140" height="52" as="geometry" />
        </mxCell>
        <mxCell id="JxCmPl5MqmU63_nnE1fJ-19" value="&lt;font style=&quot;font-size: 14px;&quot;&gt;accepted=False&lt;/font&gt;" style="text;strokeColor=none;fillColor=none;align=left;verticalAlign=top;spacingLeft=4;spacingRight=4;overflow=hidden;rotatable=0;points=[[0,0.5],[1,0.5]];portConstraint=eastwest;whiteSpace=wrap;html=1;" vertex="1" parent="JxCmPl5MqmU63_nnE1fJ-16">
          <mxGeometry y="26" width="140" height="26" as="geometry" />
        </mxCell>
        <mxCell id="JxCmPl5MqmU63_nnE1fJ-22" value="" style="endArrow=diamondThin;endFill=1;endSize=24;html=1;rounded=0;exitX=0.616;exitY=-0.065;exitDx=0;exitDy=0;exitPerimeter=0;entryX=0.644;entryY=0.941;entryDx=0;entryDy=0;entryPerimeter=0;" edge="1" parent="1" source="JxCmPl5MqmU63_nnE1fJ-16" target="JxCmPl5MqmU63_nnE1fJ-11">
          <mxGeometry width="160" relative="1" as="geometry">
            <mxPoint x="500" y="460" as="sourcePoint" />
            <mxPoint x="660" y="460" as="targetPoint" />
          </mxGeometry>
        </mxCell>
        <mxCell id="JxCmPl5MqmU63_nnE1fJ-23" value="accepts terms" style="edgeLabel;html=1;align=center;verticalAlign=middle;resizable=0;points=[];" vertex="1" connectable="0" parent="JxCmPl5MqmU63_nnE1fJ-22">
          <mxGeometry x="-0.2046" y="-3" relative="1" as="geometry">
            <mxPoint as="offset" />
          </mxGeometry>
        </mxCell>
        <mxCell id="JxCmPl5MqmU63_nnE1fJ-24" value="1" style="text;html=1;align=center;verticalAlign=middle;resizable=0;points=[];autosize=1;strokeColor=none;fillColor=none;" vertex="1" parent="1">
          <mxGeometry x="570" y="520" width="30" height="30" as="geometry" />
        </mxCell>
        <mxCell id="JxCmPl5MqmU63_nnE1fJ-25" value="1" style="text;html=1;align=center;verticalAlign=middle;resizable=0;points=[];autosize=1;strokeColor=none;fillColor=none;" vertex="1" parent="1">
          <mxGeometry x="585" y="578" width="30" height="30" as="geometry" />
        </mxCell>
        <mxCell id="JxCmPl5MqmU63_nnE1fJ-26" value="" style="line;strokeWidth=1;fillColor=none;align=left;verticalAlign=middle;spacingTop=-1;spacingLeft=3;spacingRight=3;rotatable=0;labelPosition=right;points=[];portConstraint=eastwest;strokeColor=inherit;" vertex="1" parent="1">
          <mxGeometry x="40" y="750" width="1100" height="8" as="geometry" />
        </mxCell>
        <mxCell id="JxCmPl5MqmU63_nnE1fJ-27" value="&lt;font style=&quot;font-size: 14px;&quot;&gt;registerform1:registerForm&lt;/font&gt;" style="swimlane;fontStyle=0;childLayout=stackLayout;horizontal=1;startSize=26;fillColor=none;horizontalStack=0;resizeParent=1;resizeParentMax=0;resizeLast=0;collapsible=1;marginBottom=0;whiteSpace=wrap;html=1;" vertex="1" parent="1">
          <mxGeometry x="450" y="880" width="240" height="52" as="geometry" />
        </mxCell>
        <mxCell id="JxCmPl5MqmU63_nnE1fJ-28" value="&lt;font style=&quot;font-size: 14px;&quot;&gt;Formid=5&lt;/font&gt;" style="text;strokeColor=none;fillColor=none;align=left;verticalAlign=top;spacingLeft=4;spacingRight=4;overflow=hidden;rotatable=0;points=[[0,0.5],[1,0.5]];portConstraint=eastwest;whiteSpace=wrap;html=1;" vertex="1" parent="JxCmPl5MqmU63_nnE1fJ-27">
          <mxGeometry y="26" width="240" height="26" as="geometry" />
        </mxCell>
        <mxCell id="JxCmPl5MqmU63_nnE1fJ-29" value="&lt;font style=&quot;font-size: 14px;&quot;&gt;NewUser:user&lt;/font&gt;" style="swimlane;fontStyle=0;childLayout=stackLayout;horizontal=1;startSize=26;fillColor=none;horizontalStack=0;resizeParent=1;resizeParentMax=0;resizeLast=0;collapsible=1;marginBottom=0;whiteSpace=wrap;html=1;" vertex="1" parent="1">
          <mxGeometry x="487.5" y="1180" width="210" height="90" as="geometry" />
        </mxCell>
        <mxCell id="JxCmPl5MqmU63_nnE1fJ-30" value="&lt;font style=&quot;font-size: 14px;&quot;&gt;&lt;span style=&quot;text-wrap-mode: nowrap;&quot;&gt;userName= &quot;sara ahmed0&quot;&lt;/span&gt;&lt;br style=&quot;text-wrap-mode: nowrap; padding: 0px; margin: 0px;&quot;&gt;&lt;span style=&quot;text-wrap-mode: nowrap;&quot;&gt;Email=&quot;sara@example.com&quot;&lt;br&gt;&lt;/span&gt;&lt;/font&gt;&lt;div&gt;&lt;font style=&quot;font-size: 14px;&quot;&gt;&lt;span style=&quot;text-wrap-mode: nowrap;&quot;&gt;Password= &quot;************&quot;&lt;/span&gt;&lt;br style=&quot;text-wrap-mode: nowrap; padding: 0px; margin: 0px;&quot;&gt;&lt;br&gt;&lt;/font&gt;&lt;/div&gt;" style="text;strokeColor=none;fillColor=none;align=left;verticalAlign=top;spacingLeft=4;spacingRight=4;overflow=hidden;rotatable=0;points=[[0,0.5],[1,0.5]];portConstraint=eastwest;whiteSpace=wrap;html=1;" vertex="1" parent="JxCmPl5MqmU63_nnE1fJ-29">
          <mxGeometry y="26" width="210" height="64" as="geometry" />
        </mxCell>
        <mxCell id="JxCmPl5MqmU63_nnE1fJ-31" value="" style="endArrow=open;endFill=1;endSize=12;html=1;rounded=0;entryX=0.407;entryY=-0.011;entryDx=0;entryDy=0;entryPerimeter=0;" edge="1" parent="1" source="JxCmPl5MqmU63_nnE1fJ-28" target="JxCmPl5MqmU63_nnE1fJ-29">
          <mxGeometry width="160" relative="1" as="geometry">
            <mxPoint x="550" y="1030" as="sourcePoint" />
            <mxPoint x="710" y="1030" as="targetPoint" />
          </mxGeometry>
        </mxCell>
        <mxCell id="JxCmPl5MqmU63_nnE1fJ-32" value="handles" style="edgeLabel;html=1;align=center;verticalAlign=middle;resizable=0;points=[];" vertex="1" connectable="0" parent="JxCmPl5MqmU63_nnE1fJ-31">
          <mxGeometry x="-0.2302" relative="1" as="geometry">
            <mxPoint as="offset" />
          </mxGeometry>
        </mxCell>
        <mxCell id="JxCmPl5MqmU63_nnE1fJ-33" value="1" style="text;html=1;align=center;verticalAlign=middle;resizable=0;points=[];autosize=1;strokeColor=none;fillColor=none;" vertex="1" parent="1">
          <mxGeometry x="570" y="1022" width="30" height="30" as="geometry" />
        </mxCell>
        <mxCell id="JxCmPl5MqmU63_nnE1fJ-34" value="*" style="text;html=1;align=center;verticalAlign=middle;resizable=0;points=[];autosize=1;strokeColor=none;fillColor=none;" vertex="1" parent="1">
          <mxGeometry x="570" y="1150" width="30" height="30" as="geometry" />
        </mxCell>
        <mxCell id="JxCmPl5MqmU63_nnE1fJ-35" value="&lt;font style=&quot;font-size: 14px;&quot;&gt;:TermsAccepted&lt;/font&gt;" style="swimlane;fontStyle=0;childLayout=stackLayout;horizontal=1;startSize=26;fillColor=none;horizontalStack=0;resizeParent=1;resizeParentMax=0;resizeLast=0;collapsible=1;marginBottom=0;whiteSpace=wrap;html=1;" vertex="1" parent="1">
          <mxGeometry x="540" y="1360" width="140" height="52" as="geometry" />
        </mxCell>
        <mxCell id="JxCmPl5MqmU63_nnE1fJ-36" value="&lt;font style=&quot;font-size: 14px;&quot;&gt;accepted=True&lt;/font&gt;" style="text;strokeColor=none;fillColor=none;align=left;verticalAlign=top;spacingLeft=4;spacingRight=4;overflow=hidden;rotatable=0;points=[[0,0.5],[1,0.5]];portConstraint=eastwest;whiteSpace=wrap;html=1;" vertex="1" parent="JxCmPl5MqmU63_nnE1fJ-35">
          <mxGeometry y="26" width="140" height="26" as="geometry" />
        </mxCell>
        <mxCell id="JxCmPl5MqmU63_nnE1fJ-37" value="" style="endArrow=diamondThin;endFill=1;endSize=24;html=1;rounded=0;exitX=0.616;exitY=-0.065;exitDx=0;exitDy=0;exitPerimeter=0;entryX=0.644;entryY=0.941;entryDx=0;entryDy=0;entryPerimeter=0;" edge="1" parent="1" source="JxCmPl5MqmU63_nnE1fJ-35" target="JxCmPl5MqmU63_nnE1fJ-30">
          <mxGeometry width="160" relative="1" as="geometry">
            <mxPoint x="530" y="1210" as="sourcePoint" />
            <mxPoint x="690" y="1210" as="targetPoint" />
          </mxGeometry>
        </mxCell>
        <mxCell id="JxCmPl5MqmU63_nnE1fJ-38" value="accepts terms" style="edgeLabel;html=1;align=center;verticalAlign=middle;resizable=0;points=[];" vertex="1" connectable="0" parent="JxCmPl5MqmU63_nnE1fJ-37">
          <mxGeometry x="-0.2046" y="-3" relative="1" as="geometry">
            <mxPoint as="offset" />
          </mxGeometry>
        </mxCell>
        <mxCell id="JxCmPl5MqmU63_nnE1fJ-39" value="1" style="text;html=1;align=center;verticalAlign=middle;resizable=0;points=[];autosize=1;strokeColor=none;fillColor=none;" vertex="1" parent="1">
          <mxGeometry x="630" y="1270" width="30" height="30" as="geometry" />
        </mxCell>
        <mxCell id="JxCmPl5MqmU63_nnE1fJ-40" value="1" style="text;html=1;align=center;verticalAlign=middle;resizable=0;points=[];autosize=1;strokeColor=none;fillColor=none;" vertex="1" parent="1">
          <mxGeometry x="615" y="1328" width="30" height="30" as="geometry" />
        </mxCell>
        <mxCell id="JxCmPl5MqmU63_nnE1fJ-41" value="&lt;font style=&quot;font-size: 18px;&quot;&gt;Postcondition&lt;/font&gt;" style="text;html=1;align=center;verticalAlign=middle;resizable=0;points=[];autosize=1;strokeColor=none;fillColor=none;" vertex="1" parent="1">
          <mxGeometry x="465" y="773" width="130" height="40" as="geometry" />
        </mxCell>
      </root>
    </mxGraphModel>
  </diagram>
</mxfile>
